<svg xmlns="http://www.w3.org/2000/svg" xmlns:xlink="http://www.w3.org/1999/xlink" width="24" height="24" viewBox="0 0 24 24">
  <defs>
    <clipPath id="clip-path">
      <rect y="4" width="24" height="24" fill="none"/>
    </clipPath>
  </defs>
  <g id="cart" transform="translate(0 -4)" clip-path="url(#clip-path)" style="isolation: isolate">
    <path id="cart-2" data-name="cart" d="M-8.74-5.615A2.012,2.012,0,0,1-7.275-6.25a1.934,1.934,0,0,1,1.44.635,2.051,2.051,0,0,1,.61,1.465,1.97,1.97,0,0,1-.61,1.44,1.97,1.97,0,0,1-1.44.61A2.051,2.051,0,0,1-8.74-2.71a1.934,1.934,0,0,1-.635-1.44A2.012,2.012,0,0,1-8.74-5.615ZM-23.975-22.9h3.418l.977,2.051H-4.15a.955.955,0,0,1,.732.317,1.078,1.078,0,0,1,.293.757,3.864,3.864,0,0,1-.146.488l-3.711,6.738a1.926,1.926,0,0,1-1.807,1.074h-7.764l-.928,1.709-.049.146a.216.216,0,0,0,.244.244H-5.225v2.1h-12.5a1.934,1.934,0,0,1-1.44-.635,2.051,2.051,0,0,1-.61-1.465,2.167,2.167,0,0,1,.244-.977l1.416-2.588-3.76-7.91h-2.1Zm4.785,17.285a2.012,2.012,0,0,1,1.465-.635,2.012,2.012,0,0,1,1.465.635,2.012,2.012,0,0,1,.635,1.465,1.934,1.934,0,0,1-.635,1.44,2.051,2.051,0,0,1-1.465.61,1.97,1.97,0,0,1-1.44-.61,1.97,1.97,0,0,1-.61-1.44A2.1,2.1,0,0,1-19.189-5.615Z" transform="translate(24.975 28.9)" fill="#fff"/>
  </g>
</svg>
