<svg xmlns="http://www.w3.org/2000/svg" xmlns:xlink="http://www.w3.org/1999/xlink" width="24" height="24" viewBox="0 0 24 24">
  <defs>
    <clipPath id="clip-path">
      <rect x="1" y="1" width="24" height="24" fill="none"/>
    </clipPath>
  </defs>
  <g id="favorites" transform="translate(-1 -1)" clip-path="url(#clip-path)" style="isolation: isolate">
    <path id="favorites-2" data-name="favorites" d="M-12.9-3.875l-1.455-1.289q-2.488-2.21-3.615-3.269t-2.512-2.624a10.443,10.443,0,0,1-1.9-2.831,6.826,6.826,0,0,1-.516-2.6,5.186,5.186,0,0,1,1.573-3.821,5.334,5.334,0,0,1,3.92-1.565A5.693,5.693,0,0,1-12.9-19.8a5.693,5.693,0,0,1,4.507-2.072,5.334,5.334,0,0,1,3.92,1.565A5.186,5.186,0,0,1-2.9-16.489,7,7,0,0,1-4.121-12.76,19.152,19.152,0,0,1-6.774-9.4q-1.432,1.427-4.671,4.281Z" transform="translate(25.9 25.875)" fill="#fff"/>
  </g>
</svg>
