<?xml version="1.0" encoding="UTF-8"?>
<svg width="14px" height="14px" viewBox="0 0 14 14" version="1.1" xmlns="http://www.w3.org/2000/svg" xmlns:xlink="http://www.w3.org/1999/xlink">
    <!-- Generator: Sketch 60.1 (88133) - https://sketch.com -->
    <title>login</title>
    <desc>Created with Sketch.</desc>
    <g id="login" stroke="none" stroke-width="1" fill="none" fill-rule="evenodd">
        <path d="M10.5,4.66666667 L9.91666667,4.66666667 L9.91666667,3.5 C9.91666667,1.89 8.61,0.583333333 7,0.583333333 C5.39,0.583333333 4.08333333,1.89 4.08333333,3.5 L4.08333333,4.66666667 L3.5,4.66666667 C2.85833333,4.66666667 2.33333333,5.19166667 2.33333333,5.83333333 L2.33333333,11.6666667 C2.33333333,12.3083333 2.85833333,12.8333333 3.5,12.8333333 L10.5,12.8333333 C11.1416667,12.8333333 11.6666667,12.3083333 11.6666667,11.6666667 L11.6666667,5.83333333 C11.6666667,5.19166667 11.1416667,4.66666667 10.5,4.66666667 Z M7,9.91666667 C6.35833333,9.91666667 5.83333333,9.39166667 5.83333333,8.75 C5.83333333,8.10833333 6.35833333,7.58333333 7,7.58333333 C7.64166667,7.58333333 8.16666667,8.10833333 8.16666667,8.75 C8.16666667,9.39166667 7.64166667,9.91666667 7,9.91666667 Z M8.80833333,4.66666667 L5.19166667,4.66666667 L5.19166667,3.5 C5.19166667,2.5025 6.0025,1.69166667 7,1.69166667 C7.9975,1.69166667 8.80833333,2.5025 8.80833333,3.5 L8.80833333,4.66666667 Z" id="Shape" fill="#01D6C4" fill-rule="nonzero"></path>
    </g>
</svg>