<?xml version="1.0" encoding="UTF-8"?>
<svg width="14px" height="14px" viewBox="0 0 14 14" version="1.1" xmlns="http://www.w3.org/2000/svg" xmlns:xlink="http://www.w3.org/1999/xlink">
    <!-- Generator: Sketch 60.1 (88133) - https://sketch.com -->
    <title>pay</title>
    <desc>Created with Sketch.</desc>
    <g id="pay" stroke="none" stroke-width="1" fill="none" fill-rule="evenodd">
        <path d="M6.88333333,6.35833333 C5.55916667,6.01416667 5.13333333,5.65833333 5.13333333,5.10416667 C5.13333333,4.46833333 5.7225,4.025 6.70833333,4.025 C7.74666667,4.025 8.13166667,4.52083333 8.16666667,5.25 L9.45583333,5.25 C9.415,4.24666667 8.8025,3.325 7.58333333,3.0275 L7.58333333,1.75 L5.83333333,1.75 L5.83333333,3.01 C4.70166667,3.255 3.79166667,3.99 3.79166667,5.11583333 C3.79166667,6.46333333 4.90583333,7.13416667 6.53333333,7.525 C7.99166667,7.875 8.28333333,8.38833333 8.28333333,8.93083333 C8.28333333,9.33333333 7.9975,9.975 6.70833333,9.975 C5.50666667,9.975 5.03416667,9.43833333 4.97,8.75 L3.68666667,8.75 C3.75666667,10.0275 4.71333333,10.745 5.83333333,10.9841667 L5.83333333,12.25 L7.58333333,12.25 L7.58333333,10.9958333 C8.72083333,10.78 9.625,10.1208333 9.625,8.925 C9.625,7.26833333 8.2075,6.7025 6.88333333,6.35833333 Z" id="Path" fill="#01D6C4" fill-rule="nonzero"></path>
    </g>
</svg>