<?xml version="1.0" encoding="UTF-8"?>
<svg width="14px" height="14px" viewBox="0 0 14 14" version="1.1" xmlns="http://www.w3.org/2000/svg" xmlns:xlink="http://www.w3.org/1999/xlink">
    <!-- Generator: Sketch 60.1 (88133) - https://sketch.com -->
    <title>phone</title>
    <desc>Created with Sketch.</desc>
    <g id="phone" stroke="none" stroke-width="1" fill="none" fill-rule="evenodd">
        <path d="M4.01111111,6.32777778 C4.81111111,7.9 6.1,9.18333333 7.67222222,9.98888889 L8.89444444,8.76666667 C9.04444444,8.61666667 9.26666667,8.56666667 9.46111111,8.63333333 C10.0833333,8.83888889 10.7555556,8.95 11.4444444,8.95 C11.75,8.95 12,9.2 12,9.50555556 L12,11.4444444 C12,11.75 11.75,12 11.4444444,12 C6.22777778,12 2,7.77222222 2,2.55555556 C2,2.25 2.25,2 2.55555556,2 L4.5,2 C4.80555556,2 5.05555556,2.25 5.05555556,2.55555556 C5.05555556,3.25 5.16666667,3.91666667 5.37222222,4.53888889 C5.43333333,4.73333333 5.38888889,4.95 5.23333333,5.10555556 L4.01111111,6.32777778 Z" id="Path" fill="#01D6C4" fill-rule="nonzero"></path>
    </g>
</svg>