<svg xmlns="http://www.w3.org/2000/svg" xmlns:xlink="http://www.w3.org/1999/xlink" width="24" height="24" viewBox="0 0 24 24">
  <defs>
    <clipPath id="clip-path">
      <rect x="1" y="1" width="24" height="24" fill="none"/>
    </clipPath>
  </defs>
  <g id="_2" data-name="2" transform="translate(-1 -1)" clip-path="url(#clip-path)" style="isolation: isolate">
    <path id="Контур_2" data-name="Контур 2" d="M-6.617-13.18A5.063,5.063,0,0,0-2.9-11.648,5.063,5.063,0,0,0,.82-13.18,5.063,5.063,0,0,0,2.352-16.9,5.063,5.063,0,0,0,.82-20.617,5.063,5.063,0,0,0-2.9-22.148a5.063,5.063,0,0,0-3.719,1.531A5.063,5.063,0,0,0-8.148-16.9,5.063,5.063,0,0,0-6.617-13.18ZM4.1-11.648l5.8,5.8L8.148-4.1l-5.8-5.8v-.93l-.328-.328A7.262,7.262,0,0,1-2.9-9.352a7.379,7.379,0,0,1-5.387-2.187A7.242,7.242,0,0,1-10.5-16.9a7.332,7.332,0,0,1,2.215-5.387A7.332,7.332,0,0,1-2.9-24.5a7.242,7.242,0,0,1,5.359,2.215A7.379,7.379,0,0,1,4.648-16.9,7.462,7.462,0,0,1,4.1-14.3a8.361,8.361,0,0,1-1.258,2.324l.328.328Z" transform="translate(13.5 27.5)" fill="#2f3542"/>
  </g>
</svg>
