<?xml version="1.0" encoding="UTF-8"?>
<svg width="14px" height="14px" viewBox="0 0 14 14" version="1.1" xmlns="http://www.w3.org/2000/svg" xmlns:xlink="http://www.w3.org/1999/xlink">
    <!-- Generator: Sketch 60.1 (88133) - https://sketch.com -->
    <title>shipping</title>
    <desc>Created with Sketch.</desc>
    <g id="shipping" stroke="none" stroke-width="1" fill="none" fill-rule="evenodd">
        <path d="M11.6666667,4.66666667 L9.91666667,4.66666667 L9.91666667,2.33333333 L1.75,2.33333333 C1.10833333,2.33333333 0.583333333,2.85833333 0.583333333,3.5 L0.583333333,9.91666667 L1.75,9.91666667 C1.75,10.885 2.53166667,11.6666667 3.5,11.6666667 C4.46833333,11.6666667 5.25,10.885 5.25,9.91666667 L8.75,9.91666667 C8.75,10.885 9.53166667,11.6666667 10.5,11.6666667 C11.4683333,11.6666667 12.25,10.885 12.25,9.91666667 L13.4166667,9.91666667 L13.4166667,7 L11.6666667,4.66666667 Z M11.375,5.54166667 L12.5183333,7 L9.91666667,7 L9.91666667,5.54166667 L11.375,5.54166667 Z M3.5,10.5 C3.17916667,10.5 2.91666667,10.2375 2.91666667,9.91666667 C2.91666667,9.59583333 3.17916667,9.33333333 3.5,9.33333333 C3.82083333,9.33333333 4.08333333,9.59583333 4.08333333,9.91666667 C4.08333333,10.2375 3.82083333,10.5 3.5,10.5 Z M10.5,10.5 C10.1791667,10.5 9.91666667,10.2375 9.91666667,9.91666667 C9.91666667,9.59583333 10.1791667,9.33333333 10.5,9.33333333 C10.8208333,9.33333333 11.0833333,9.59583333 11.0833333,9.91666667 C11.0833333,10.2375 10.8208333,10.5 10.5,10.5 Z" id="Shape" fill="#01D6C4" fill-rule="nonzero"></path>
    </g>
</svg>