<svg id="Logo" xmlns="http://www.w3.org/2000/svg" width="269.495" height="44.971" viewBox="0 0 269.495 44.971">
  <path id="Контур_1" data-name="Контур 1" d="M-210.32-4.84V0h-19.72V-28.4h19.36v4.84h-13.84v6.84h11.96v4.48h-11.96v7.4Zm2.76-24.36h5.36V-6.72a2.866,2.866,0,0,0,.48,1.94,1.743,1.743,0,0,0,1.32.5,5.756,5.756,0,0,0,1.32-.16,6.325,6.325,0,0,0,1.2-.4l.72,4.08a10.366,10.366,0,0,1-2.52.8,13.748,13.748,0,0,1-2.6.28,5.367,5.367,0,0,1-3.9-1.34,5.08,5.08,0,0,1-1.38-3.82ZM-186.12.4a11.631,11.631,0,0,1-4.56-.86,10.308,10.308,0,0,1-3.48-2.36,10.666,10.666,0,0,1-2.22-3.44,10.887,10.887,0,0,1-.78-4.1,11.341,11.341,0,0,1,1.34-5.48,10.281,10.281,0,0,1,3.84-3.98,11.251,11.251,0,0,1,5.9-1.5,11.014,11.014,0,0,1,5.88,1.5,10.155,10.155,0,0,1,3.74,3.96,11.173,11.173,0,0,1,1.3,5.3q0,.48-.04.98t-.08.82h-16.2a6.184,6.184,0,0,0,.94,2.8,5.132,5.132,0,0,0,2,1.82,5.7,5.7,0,0,0,2.62.62,6.179,6.179,0,0,0,3.02-.78,4.129,4.129,0,0,0,1.94-2.06l4.6,1.28a8.719,8.719,0,0,1-2.18,2.84A10.474,10.474,0,0,1-181.88-.3,12.3,12.3,0,0,1-186.12.4Zm-5.48-12.56h10.96a6.344,6.344,0,0,0-.9-2.78,5.238,5.238,0,0,0-1.94-1.84,5.468,5.468,0,0,0-2.68-.66,5.275,5.275,0,0,0-2.62.66,5.286,5.286,0,0,0-1.92,1.84A6.344,6.344,0,0,0-191.6-12.16ZM-163.12.4a11.739,11.739,0,0,1-4.6-.86,10.034,10.034,0,0,1-3.48-2.4,11.077,11.077,0,0,1-2.22-3.5,11.04,11.04,0,0,1-.78-4.12,11.145,11.145,0,0,1,1.34-5.42,10.221,10.221,0,0,1,3.82-3.94,11.262,11.262,0,0,1,5.88-1.48,11.05,11.05,0,0,1,5.84,1.48,9.416,9.416,0,0,1,3.64,3.88l-5.24,1.6a4.707,4.707,0,0,0-1.8-1.78,5.034,5.034,0,0,0-2.48-.62,5.178,5.178,0,0,0-2.78.78,5.382,5.382,0,0,0-1.98,2.2,7.2,7.2,0,0,0-.72,3.3,6.952,6.952,0,0,0,.74,3.26,5.883,5.883,0,0,0,1.98,2.24,4.9,4.9,0,0,0,2.76.82,5.176,5.176,0,0,0,1.82-.32,5.321,5.321,0,0,0,1.54-.88,3.5,3.5,0,0,0,1-1.28l5.24,1.6a8.594,8.594,0,0,1-2.1,2.8A10.13,10.13,0,0,1-158.94-.3,11.8,11.8,0,0,1-163.12.4Zm24.36-1.48q-.68.28-1.64.64a13.275,13.275,0,0,1-2.06.58,11.293,11.293,0,0,1-2.22.22,6.964,6.964,0,0,1-2.72-.52,4.291,4.291,0,0,1-1.98-1.66,5.392,5.392,0,0,1-.74-2.98V-16.84h-2.76v-4.12h2.76v-6.8h5.36v6.8h4.4v4.12h-4.4V-6.6a2.058,2.058,0,0,0,.6,1.56,2.076,2.076,0,0,0,1.4.48,4.93,4.93,0,0,0,1.64-.28q.8-.28,1.28-.48Zm14.28-15.24a9.788,9.788,0,0,0-4.36.94,5.721,5.721,0,0,0-2.76,2.7V0h-5.36V-20.96h4.92v4.48a9.462,9.462,0,0,1,2.84-3.4,6.881,6.881,0,0,1,3.64-1.36h.68a1.683,1.683,0,0,1,.4.04ZM-113.08.4a11.739,11.739,0,0,1-4.6-.86,9.96,9.96,0,0,1-3.46-2.38,10.733,10.733,0,0,1-2.18-3.48,11.3,11.3,0,0,1-.76-4.12,11.405,11.405,0,0,1,.76-4.16,10.733,10.733,0,0,1,2.18-3.48,9.96,9.96,0,0,1,3.46-2.38,11.739,11.739,0,0,1,4.6-.86,11.591,11.591,0,0,1,4.58.86,10.214,10.214,0,0,1,3.46,2.38,10.3,10.3,0,0,1,2.18,3.48,11.678,11.678,0,0,1,.74,4.16,11.566,11.566,0,0,1-.74,4.12,10.459,10.459,0,0,1-2.16,3.48,9.96,9.96,0,0,1-3.46,2.38A11.739,11.739,0,0,1-113.08.4Zm-5.48-10.84a7.111,7.111,0,0,0,.72,3.26,5.578,5.578,0,0,0,1.96,2.22,5.053,5.053,0,0,0,2.8.8,4.9,4.9,0,0,0,2.76-.82,5.883,5.883,0,0,0,1.98-2.24,6.952,6.952,0,0,0,.74-3.26,6.985,6.985,0,0,0-.74-3.24,5.693,5.693,0,0,0-1.98-2.24,4.984,4.984,0,0,0-2.76-.8,4.963,4.963,0,0,0-2.8.82,5.729,5.729,0,0,0-1.96,2.24A7.111,7.111,0,0,0-118.56-10.44Zm19.6-16.52V0h3.52V-12.64H-82.4V0h3.52V-26.96H-82.4v11.28H-95.44V-26.96Zm33.2,7.2c-5.32,0-9.6,3.8-9.6,10.24,0,6.12,4.08,9.96,9.28,9.96,4.64,0,9.64-3.12,9.64-10.28C-56.44-15.72-60.2-19.76-65.76-19.76Zm-.08,2.64c4.16,0,5.8,4.12,5.8,7.4,0,4.36-2.52,7.52-5.88,7.52-3.44,0-5.84-3.2-5.84-7.44C-71.76-13.28-69.96-17.12-65.84-17.12Zm29.04-2.24h-3.52V-7.52a4.827,4.827,0,0,1-.32,1.8,5.063,5.063,0,0,1-4.64,3.24c-3.16,0-4.32-2.52-4.32-6.2V-19.36h-3.52V-8.04c0,6.76,3.64,8.48,6.68,8.48a7.231,7.231,0,0,0,6.4-3.6h.08l.2,3.16h3.12c-.12-1.52-.16-3.28-.16-5.32ZM-33.28-.92A11.037,11.037,0,0,0-27.84.44c4.52,0,7.2-2.4,7.2-5.84,0-2.88-1.76-4.56-5.08-5.8-2.52-1-3.64-1.72-3.64-3.32,0-1.44,1.12-2.64,3.2-2.64A7.5,7.5,0,0,1-22.2-16l.84-2.56a8.985,8.985,0,0,0-4.72-1.2c-4.12,0-6.68,2.56-6.68,5.68,0,2.32,1.64,4.2,5.16,5.48,2.56.96,3.56,1.84,3.56,3.52,0,1.64-1.2,2.88-3.72,2.88a9.943,9.943,0,0,1-4.68-1.36ZM-1.56-9.04a8.581,8.581,0,0,0,.12-1.64c0-3.56-1.64-9.08-8-9.08-5.64,0-9.08,4.56-9.08,10.4S-14.96.44-9,.44A15.771,15.771,0,0,0-2.52-.8l-.64-2.52a12.591,12.591,0,0,1-5.36,1c-3.56,0-6.56-1.96-6.64-6.72Zm-13.56-2.52c.28-2.44,1.8-5.68,5.4-5.68,3.96,0,4.92,3.48,4.88,5.68Z" transform="translate(270.935 36.544)" fill="#fff"/>
  <path id="Logo-2" data-name="Logo" d="M396.926,96.89a3.091,3.091,0,0,1,2.679,4.6l-3.687,6.617L387.4,123.393a3.072,3.072,0,0,1-5.689-2.126l1.906-9.451a3.086,3.086,0,0,0-3.01-3.706h-2.538a3.091,3.091,0,0,1-2.679-4.6l3.687-6.616,8.515-15.284a3.072,3.072,0,0,1,5.689,2.126l-1.906,9.452a3.086,3.086,0,0,0,3.01,3.706Z" transform="translate(-374.995 -80.014)" fill="#00d5c3"/>
</svg>
